<svg width="509" height="342" viewBox="0 0 509 342" fill="none" xmlns="http://www.w3.org/2000/svg">
<path d="M491.74 324.849C491.659 324.716 489.747 321.518 489.084 314.877C488.476 308.784 488.867 298.514 494.183 284.189C504.255 257.049 491.862 235.152 491.736 234.934L492.347 234.578C494.733 239.153 496.457 244.045 497.466 249.107C499.962 260.893 499.053 273.148 494.846 284.435C484.792 311.528 492.266 324.354 492.343 324.48L491.74 324.849Z" fill="#E6E6E6"/>
<path d="M487.802 233.34C490.338 233.34 492.395 231.28 492.395 228.738C492.395 226.197 490.338 224.137 487.802 224.137C485.265 224.137 483.209 226.197 483.209 228.738C483.209 231.28 485.265 233.34 487.802 233.34Z" fill="#E6E6E6"/>
<path d="M502.287 250.331C504.824 250.331 506.88 248.271 506.88 245.729C506.88 243.188 504.824 241.128 502.287 241.128C499.75 241.128 497.694 243.188 497.694 245.729C497.694 248.271 499.75 250.331 502.287 250.331Z" fill="#E6E6E6"/>
<path d="M492.395 261.658C494.931 261.658 496.988 259.598 496.988 257.056C496.988 254.515 494.931 252.455 492.395 252.455C489.858 252.455 487.802 254.515 487.802 257.056C487.802 259.598 489.858 261.658 492.395 261.658Z" fill="#E6E6E6"/>
<path d="M504.407 271.215C506.944 271.215 509 269.155 509 266.613C509 264.072 506.944 262.012 504.407 262.012C501.87 262.012 499.814 264.072 499.814 266.613C499.814 269.155 501.87 271.215 504.407 271.215Z" fill="#E6E6E6"/>
<path d="M488.862 286.082C491.398 286.082 493.454 284.022 493.454 281.48C493.454 278.939 491.398 276.879 488.862 276.879C486.325 276.879 484.269 278.939 484.269 281.48C484.269 284.022 486.325 286.082 488.862 286.082Z" fill="#E6E6E6"/>
<path d="M494.515 325.019C494.515 325.019 489.922 313.692 503.701 305.196L494.515 325.019Z" fill="#E6E6E6"/>
<path d="M488.866 324.813C488.866 324.813 486.776 312.768 470.597 312.871L488.866 324.813Z" fill="#E6E6E6"/>
<path d="M422.472 342C469.995 342 508.52 336.832 508.52 330.457C508.52 324.083 469.995 318.915 422.472 318.915C374.949 318.915 336.424 324.083 336.424 330.457C336.424 336.832 374.949 342 422.472 342Z" fill="#E6E6E6"/>
<path d="M432.333 65.3872L438.632 63.8406C441.036 63.8406 443.41 63.3051 445.583 62.2729C447.755 61.2407 449.671 59.7375 451.192 57.8722C452.714 56.0069 453.802 53.8261 454.379 51.4877C454.956 49.1492 455.006 46.7115 454.527 44.351C454.527 38.7175 452.293 33.3146 448.317 29.3311C444.341 25.3475 438.949 23.1096 433.326 23.1096H433.326C430.541 23.1096 427.784 23.659 425.212 24.7265C422.64 25.794 420.303 27.3586 418.334 29.3311C416.365 31.3035 414.803 33.6452 413.738 36.2223C412.672 38.7994 412.124 41.5616 412.124 44.351C411.313 47.1934 411.261 50.1994 411.973 53.0683C412.686 55.9372 414.138 58.5682 416.184 60.6982C418.23 62.8282 420.799 64.3825 423.633 65.2053C426.467 66.0282 429.467 66.091 432.333 65.3872Z" fill="#2F2E41"/>
<path d="M442.906 55.9875L452.545 72.598L449.846 80.7106L435.966 78.3924L429.025 63.7134L442.906 55.9875Z" fill="#FFB8B8"/>
<path d="M453.564 38.2351C459.122 38.2351 463.627 33.7213 463.627 28.1532C463.627 22.5851 459.122 18.0713 453.564 18.0713C448.006 18.0713 443.501 22.5851 443.501 28.1532C443.501 33.7213 448.006 38.2351 453.564 38.2351Z" fill="#2F2E41"/>
<path d="M444.272 22.7451C444.271 21.2538 444.601 19.7809 445.237 18.4326C445.874 17.0844 446.801 15.8945 447.952 14.9487C449.103 14.003 450.449 13.3249 451.893 12.9635C453.337 12.6021 454.843 12.5664 456.303 12.8589C455.015 12.2509 453.612 11.924 452.188 11.8997C450.764 11.8754 449.352 12.1543 448.043 12.7179C446.735 13.2816 445.561 14.1171 444.599 15.1693C443.638 16.2215 442.91 17.4663 442.464 18.8213C442.018 20.1764 441.865 21.6109 442.014 23.0298C442.163 24.4487 442.611 25.8198 443.328 27.0523C444.046 28.2847 445.016 29.3505 446.176 30.1791C447.335 31.0077 448.657 31.5802 450.053 31.8588C448.326 31.046 446.865 29.7574 445.841 28.1436C444.817 26.5297 444.273 24.6573 444.272 22.7451Z" fill="#2F2E41"/>
<path d="M380.83 188.486C380.83 188.486 379.287 199.302 384.685 198.529C390.083 197.757 388.541 188.486 388.541 188.486H380.83Z" fill="#FFB8B8"/>
<path d="M375.432 288.922L371.576 301.283L380.83 305.146L384.686 288.922H375.432Z" fill="#FFB8B8"/>
<path d="M443.291 296.994L443.143 309.944L453.114 310.98L452.155 294.331L443.291 296.994Z" fill="#FFB8B8"/>
<path d="M403.193 131.315L449.46 132.86L452.545 237.159L462.569 297.42L437.893 302.056L417.073 201.62L392.397 292.785L370.033 290.467L403.193 131.315Z" fill="#2F2E41"/>
<path d="M376.974 301.283C376.974 301.283 373.118 294.33 370.034 298.193C366.949 302.056 354.611 316.735 354.611 316.735C354.611 316.735 340.731 330.641 363.094 329.096C363.094 329.096 370.034 329.096 371.576 324.461C371.576 324.461 384.685 322.143 384.685 318.28C384.685 314.417 381.845 300.875 381.845 300.875L376.974 301.283Z" fill="#2F2E41"/>
<path d="M448.689 308.237C448.689 308.237 444.833 301.283 441.749 305.146C438.664 309.009 426.326 323.688 426.326 323.688C426.326 323.688 412.446 337.595 434.809 336.05C434.809 336.05 441.749 336.05 443.291 331.414C443.291 331.414 456.4 329.096 456.4 325.233C456.4 321.37 453.56 307.828 453.56 307.828L448.689 308.237Z" fill="#2F2E41"/>
<path d="M428.254 68.3491C438.049 68.3491 445.99 60.3934 445.99 50.5796C445.99 40.7658 438.049 32.8102 428.254 32.8102C418.459 32.8102 410.518 40.7658 410.518 50.5796C410.518 60.3934 418.459 68.3491 428.254 68.3491Z" fill="#FFB8B8"/>
<path d="M456.786 76.0748L429.025 75.3022L412.832 93.8443C412.832 93.8443 398.18 108.523 405.12 119.34V137.109H449.846L461.413 106.978L456.786 76.0748Z" fill="#D0CDE1"/>
<path d="M454.087 121.271C454.087 121.271 438.239 88.2742 446.934 75.8007L450.079 68.3491L458.714 66.4176V68.7354L481.076 71.0531L475.679 109.682L471.052 198.529L427.483 190.417L452.93 136.336L454.087 121.271Z" fill="#575A89"/>
<path d="M432.881 72.2119L407.819 88.8225C407.819 88.8225 394.71 115.09 391.626 127.452C388.541 139.813 368.492 190.804 368.492 190.804H392.397L424.784 86.5047L435.194 76.0748L432.881 72.2119Z" fill="#575A89"/>
<path d="M467.967 123.589L454.087 125.906C454.087 125.906 440.978 133.632 444.062 142.903C447.147 152.174 456.401 132.86 456.401 132.86L472.594 131.315L467.967 123.589Z" fill="#FFB8B8"/>
<path d="M474.908 74.1434L481.077 71.0532L507.295 123.589L476.45 138.268L464.112 121.271L480.305 116.636L468.738 97.321L474.908 74.1434Z" fill="#575A89"/>
<path d="M439.806 29.5156L426.236 27.03L415.811 33.5945C413.248 35.2083 411.201 37.5248 409.912 40.2691C408.624 43.0134 408.147 46.0704 408.54 49.0777L418.986 46.411L421.319 40.53L424.111 45.1028L430.971 43.3517L446.761 62.941L448.027 44.0173L439.806 29.5156Z" fill="#2F2E41"/>
<path d="M437.536 52.6882C438.537 52.3238 438.817 50.5654 438.163 48.7609C437.508 46.9563 436.166 45.7889 435.165 46.1534C434.165 46.5178 433.884 48.2761 434.539 50.0807C435.194 51.8852 436.536 53.0527 437.536 52.6882Z" fill="#FFB8B8"/>
<path d="M82.966 109.471H27.864V164.677H82.966V109.471Z" fill="#E6E6E6"/>
<path d="M73.2431 119.615H38.1782V154.746H73.2431V119.615Z" fill="#6C63FF"/>
<path d="M110.83 0H0V77.1628H110.83V0Z" fill="#6C63FF"/>
<path d="M55.4151 15.0562C50.771 15.0562 46.2312 16.4359 42.3697 19.0209C38.5083 21.6059 35.4987 25.28 33.7215 29.5787C31.9443 33.8774 31.4793 38.6075 32.3853 43.171C33.2913 47.7344 35.5276 51.9262 38.8115 55.2163C42.0954 58.5063 46.2793 60.7469 50.8342 61.6546C55.389 62.5623 60.1103 62.0965 64.4009 60.3159C68.6914 58.5353 72.3587 55.52 74.9388 51.6513C77.5189 47.7826 78.896 43.2343 78.896 38.5814C78.8778 32.3477 76.3981 26.3746 71.9985 21.9667C67.5989 17.5588 61.637 15.0744 55.4151 15.0562ZM55.4151 22.1137C56.8083 22.1137 58.1702 22.5276 59.3287 23.3031C60.4871 24.0786 61.39 25.1809 61.9231 26.4705C62.4563 27.7601 62.5958 29.1791 62.324 30.5482C62.0522 31.9172 61.3813 33.1747 60.3961 34.1618C59.411 35.1488 58.1558 35.8209 56.7893 36.0933C55.4229 36.3656 54.0065 36.2258 52.7193 35.6916C51.4322 35.1575 50.332 34.2529 49.558 33.0923C48.7839 31.9317 48.3708 30.5672 48.3708 29.1713C48.377 27.3014 49.1212 25.5099 50.4409 24.1877C51.7606 22.8655 53.5487 22.12 55.4151 22.1137ZM55.4151 56.0896C52.6323 56.0769 49.8947 55.3842 47.4396 54.0716C44.9845 52.7589 42.8861 50.866 41.3265 48.557C41.4394 43.852 50.7189 41.2619 55.4151 41.2619C60.1113 41.2619 69.3908 43.852 69.5037 48.557C67.9422 50.8643 65.8435 52.7559 63.3888 54.0683C60.9341 55.3807 58.1974 56.0745 55.4151 56.0896V56.0896Z" fill="white"/>
<path d="M193.156 109.471H138.054V164.677H193.156V109.471Z" fill="#E6E6E6"/>
<path d="M183.433 119.615H148.368V154.746H183.433V119.615Z" fill="#6C63FF"/>
<path d="M221.02 0H110.19V77.1628H221.02V0Z" fill="#6C63FF"/>
<path d="M165.605 15.0562C160.961 15.0562 156.421 16.4359 152.56 19.0209C148.698 21.6059 145.689 25.28 143.912 29.5787C142.134 33.8774 141.669 38.6075 142.575 43.171C143.481 47.7344 145.718 51.9262 149.002 55.2163C152.286 58.5063 156.469 60.7469 161.024 61.6546C165.579 62.5623 170.3 62.0965 174.591 60.3159C178.882 58.5353 182.549 55.52 185.129 51.6513C187.709 47.7826 189.086 43.2343 189.086 38.5814C189.068 32.3477 186.588 26.3746 182.189 21.9667C177.789 17.5588 171.827 15.0744 165.605 15.0562ZM165.605 22.1137C166.998 22.1137 168.36 22.5276 169.519 23.3031C170.677 24.0786 171.58 25.1809 172.113 26.4705C172.646 27.7601 172.786 29.1791 172.514 30.5482C172.242 31.9172 171.571 33.1747 170.586 34.1618C169.601 35.1488 168.346 35.8209 166.98 36.0933C165.613 36.3656 164.197 36.2258 162.91 35.6916C161.622 35.1575 160.522 34.2529 159.748 33.0923C158.974 31.9317 158.561 30.5672 158.561 29.1713C158.567 27.3014 159.311 25.5099 160.631 24.1877C161.951 22.8655 163.739 22.12 165.605 22.1137ZM165.605 56.0896C162.822 56.0769 160.085 55.3842 157.63 54.0716C155.175 52.7589 153.076 50.866 151.517 48.557C151.63 43.852 160.909 41.2619 165.605 41.2619C170.301 41.2619 179.581 43.852 179.694 48.557C178.132 50.8643 176.034 52.7559 173.579 54.0683C171.124 55.3807 168.388 56.0745 165.605 56.0896V56.0896Z" fill="white"/>
<path d="M331.286 0H220.456V77.1628H331.286V0Z" fill="#E6E6E6"/>
<path d="M275.871 15.0562C271.227 15.0562 266.687 16.4359 262.826 19.0209C258.965 21.6059 255.955 25.28 254.178 29.5787C252.401 33.8774 251.936 38.6075 252.842 43.171C253.748 47.7344 255.984 51.9262 259.268 55.2163C262.552 58.5063 266.736 60.7469 271.29 61.6546C275.845 62.5623 280.567 62.0965 284.857 60.3159C289.148 58.5353 292.815 55.52 295.395 51.6513C297.975 47.7826 299.352 43.2343 299.352 38.5814C299.334 32.3477 296.854 26.3746 292.455 21.9667C288.055 17.5588 282.093 15.0744 275.871 15.0562ZM275.871 22.1137C277.265 22.1137 278.627 22.5276 279.785 23.3031C280.943 24.0786 281.846 25.1809 282.379 26.4705C282.913 27.7601 283.052 29.1791 282.78 30.5482C282.509 31.9172 281.838 33.1747 280.852 34.1618C279.867 35.1488 278.612 35.8209 277.246 36.0933C275.879 36.3656 274.463 36.2258 273.176 35.6916C271.888 35.1575 270.788 34.2529 270.014 33.0923C269.24 31.9317 268.827 30.5672 268.827 29.1713C268.833 27.3014 269.577 25.5099 270.897 24.1877C272.217 22.8655 274.005 22.12 275.871 22.1137ZM275.871 56.0896C273.089 56.0769 270.351 55.3842 267.896 54.0716C265.441 52.7589 263.342 50.866 261.783 48.557C261.896 43.852 271.175 41.2619 275.871 41.2619C280.568 41.2619 289.847 43.852 289.96 48.557C288.399 50.8643 286.3 52.7559 283.845 54.0683C281.39 55.3807 278.654 56.0745 275.871 56.0896V56.0896Z" fill="white"/>
<path d="M303.422 109.471H248.32V164.677H303.422V109.471Z" fill="#E6E6E6"/>
<path d="M293.699 119.615H258.635V154.746H293.699V119.615Z" fill="white"/>
<path d="M53.6177 144.668L47.5366 136.835L51.0729 134.079L53.9518 137.788L63.6793 127.501L66.9321 130.588L53.6177 144.668Z" fill="white"/>
<path d="M163.706 144.668L157.625 136.835L161.162 134.079L164.04 137.788L173.768 127.501L177.021 130.588L163.706 144.668Z" fill="white"/>
<path d="M273.794 144.668L267.714 136.835L271.25 134.079L274.13 137.788L283.857 127.501L287.109 130.588L273.794 144.668Z" fill="#E6E6E6"/>
</svg>
