<svg width="460" height="244" viewBox="0 0 460 244" fill="none" xmlns="http://www.w3.org/2000/svg">
<g clip-path="url(#clip0)">
<path opacity="0.1" d="M19.5053 33.376C20.2506 38.1026 22.1552 42.6678 22.1717 47.4483C22.2338 63.0684 3.27506 72.6624 0.372656 88.0094C-1.34974 97.1149 3.11359 106.419 9.40696 113.211C15.7003 120.003 23.7244 124.899 31.115 130.487C51.5634 145.975 67.3251 166.818 76.655 190.708C78.5223 195.509 80.1287 200.459 80.6587 205.583C81.0438 209.308 80.8616 213.12 81.7352 216.758C85.1924 231.198 102.723 236.803 117.545 237.738C141.418 239.219 165.314 235.23 187.41 226.075C192.378 224.005 197.508 221.654 202.841 222.238C207.106 222.705 210.911 225.011 214.654 227.109C225.676 233.293 237.407 238.121 249.59 241.488C256.339 243.35 263.423 244.766 270.317 243.557C291.019 239.907 302.02 214.808 322.333 209.32C336.385 205.525 351.009 212.155 363.612 219.436C376.215 226.716 389.224 235.101 403.774 235.122C423.184 235.147 439.141 220.462 452.307 206.208C455.069 203.215 457.876 200.086 459.193 196.233C461.863 188.411 457.537 179.624 451.14 174.367C444.743 169.111 436.677 166.503 428.972 163.499C415.912 158.405 403.448 151.899 391.804 144.095C384.268 139.046 376.969 133.334 371.814 125.884C367.38 119.461 364.718 112.015 361.745 104.797C355.228 88.9903 346.011 72.9273 330.622 65.5104C318.056 59.451 303.461 60.1298 289.512 59.9684C268.959 59.7408 247.884 57.2699 229.663 47.767C214.273 39.7417 201.632 27.0725 186.015 19.4859C161.172 7.42934 132.774 9.79265 106.006 10.2479C93.1419 10.4673 77.8515 11.7503 65.4966 7.53695C56.3588 4.42037 51.6554 -1.94939 41.1595 0.616724C26.8048 4.11409 17.2116 18.7947 19.5053 33.376Z" fill="#6C63FF"/>
<path d="M333.872 33.7526C328.245 33.5829 322.018 34.299 318.188 38.4213C315.257 41.5751 314.321 46.1362 311.638 49.5094C307.833 54.2981 301.179 55.9371 296.964 60.3698C295.145 62.3287 293.868 64.7276 293.258 67.3301C292.648 69.9326 292.727 72.6491 293.486 75.2119C294.07 77.0992 295.023 78.8582 295.644 80.7332C298.248 88.5971 294.849 96.97 292.745 104.97C292.511 105.627 292.469 106.336 292.625 107.015C292.948 107.992 293.979 108.505 294.828 109.085C297.614 110.984 299.039 114.42 299.291 117.776C299.544 121.133 298.786 124.485 298.02 127.767C295.987 136.459 293.42 145.817 286.361 151.293C283.38 153.631 279.397 155.527 278.618 159.252C277.707 163.614 281.873 167.323 285.868 169.297C297.598 175.092 311.216 175.174 324.047 177.757C335.346 180.033 346.616 184.346 358.051 182.873C363.148 182.219 368.021 180.427 372.845 178.651L402.879 167.588C403.728 167.329 404.526 166.927 405.239 166.4C407.049 164.893 407.111 162.029 406.125 159.889C405.14 157.75 403.351 156.111 401.778 154.356C398.35 150.519 395.741 145.101 397.613 140.308C398.855 137.146 401.815 134.866 402.863 131.617C404.809 125.615 399.55 119.995 396.362 114.556C393.413 109.516 392.075 103.694 392.528 97.8723C393.029 91.6143 395.592 85.6295 395.779 79.3549C395.952 73.5108 394.06 67.824 392.189 62.282C390.645 57.7044 389.071 53.073 386.459 49.0044C381.519 41.3185 372.746 36.4884 363.72 35.6855C359.459 35.3089 355.298 36.6912 351.112 36.1532C345.295 35.4372 339.797 33.9306 333.872 33.7526Z" fill="#F7D6C8"/>
<path d="M342.273 192.988C342.273 192.988 308.222 171.648 321.463 147.046C324.527 141.359 325.881 135.979 326.158 131.066C326.231 129.772 326.231 128.474 326.158 127.18C326.158 127.117 326.158 127.055 326.158 126.993C326.114 126.326 326.055 125.669 325.98 125.023C324.403 112.035 316.056 103.571 316.056 103.571C316.056 103.571 372.535 87.0944 363.078 101.949C358.689 108.844 360.002 115.607 362.941 122.606C363.252 123.343 363.583 124.088 363.927 124.829C367.322 132.208 372.034 139.853 373.35 148.143C376.05 165.162 342.273 192.988 342.273 192.988Z" fill="#EFB7B9"/>
<path opacity="0.1" d="M363.078 106.949C358.689 113.844 360.002 120.607 362.941 127.606C357.493 131.118 351.239 133.184 344.77 133.61C338.301 134.036 331.83 132.807 325.968 130.04C324.403 117.035 316.056 108.571 316.056 108.571C316.056 108.571 372.539 92.0903 363.078 106.949Z" fill="black"/>
<path d="M342.268 132.883C363.313 132.883 380.372 115.83 380.372 94.793C380.372 73.7564 363.313 56.7028 342.268 56.7028C321.224 56.7028 304.165 73.7564 304.165 94.793C304.165 115.83 321.224 132.883 342.268 132.883Z" fill="#EFB7B9"/>
<path opacity="0.1" d="M326.158 132.196C326.158 132.134 326.158 132.072 326.158 132.01L326.204 131.935C326.179 132.026 326.162 132.113 326.158 132.196Z" fill="black"/>
<path opacity="0.1" d="M342.272 197.988C342.272 197.988 308.222 176.648 321.463 152.046C324.527 146.359 325.881 140.979 326.158 136.066C326.932 142.142 331.127 149.695 338.761 160.15C342.074 164.703 343.498 171.069 343.949 177.43L344.707 177.981L348.433 175.729C348.847 168.693 350.272 161.582 353.642 156.541C362.498 143.297 364.602 136.674 363.947 129.812C367.342 137.192 372.054 144.836 373.371 153.127C376.05 170.162 342.272 197.988 342.272 197.988Z" fill="black"/>
<path d="M396.859 146.728C376.571 145.254 363.736 129.51 363.736 129.51C364.817 136.886 363.061 143.487 353.601 157.654C350.251 162.679 348.831 169.777 348.417 176.83L344.69 179.081L343.933 178.531C343.481 172.174 342.061 165.8 338.745 161.251C329.288 148.284 325.082 139.774 326.179 133.02C326.179 133.02 315.774 149.902 295.507 151.256C275.24 152.609 258.215 166.926 256.587 193.129L263.071 202.044H327.028L327.003 202.181H429.27L435.779 192.442C434.152 163.834 417.147 148.201 396.859 146.728Z" fill="#6C63FF"/>
<path opacity="0.05" d="M396.859 146.728C376.571 145.254 363.736 129.51 363.736 129.51C364.817 136.886 363.061 143.487 353.601 157.654C350.251 162.679 348.831 169.777 348.417 176.83L344.69 179.081L343.933 178.531C343.481 172.174 342.061 165.8 338.745 161.251C329.288 148.284 325.082 139.774 326.179 133.02C326.179 133.02 315.774 149.902 295.507 151.256C275.24 152.609 258.215 166.926 256.587 193.129L263.071 202.044H327.028L327.003 202.181H429.27L435.779 192.442C434.152 163.834 417.147 148.201 396.859 146.728Z" fill="black"/>
<path opacity="0.1" d="M368.03 76.3832C366.374 80.4807 363.434 83.9408 360.221 86.9788C355.783 91.1798 350.201 94.8799 344.098 94.5943C347.426 91.4959 349.834 87.5404 351.058 83.1627C347.208 85.406 344.297 88.9572 340.62 91.486C336.944 94.0149 331.748 95.3186 328.154 92.678C334.681 89.3975 340.104 84.2763 343.751 77.9477C335.023 80.2117 330.543 90.0374 322.68 94.4495C318.995 96.5189 314.685 97.297 310.462 97.206C307.46 97.1439 304.115 96.4444 302.442 93.9528C301.465 92.5042 301.237 90.6831 301.2 88.9323C301.018 80.9939 304.251 73.2046 309.232 67.0252C314.213 60.8458 320.825 56.1482 327.897 52.5018C330.414 51.2022 333.039 50.0185 335.842 49.6046C339.329 49.0996 342.881 49.8405 346.301 50.6269C350.748 51.6451 355.219 52.7626 359.314 54.7658C368.055 59.0909 371.872 66.93 368.03 76.3832Z" fill="black"/>
<path d="M368.03 75.841C366.374 79.9385 363.434 83.3986 360.221 86.4365C355.783 90.6375 350.201 94.3377 344.098 94.0521C347.426 90.9537 349.834 86.9982 351.058 82.6205C347.208 84.8638 344.297 88.4149 340.62 90.9438C336.944 93.4726 331.748 94.7764 328.154 92.1358C334.681 88.8553 340.104 83.7341 343.751 77.4055C335.023 79.6695 330.543 89.4952 322.68 93.9072C318.995 95.9767 314.685 96.7548 310.462 96.6637C307.46 96.6017 304.115 95.9022 302.442 93.4106C301.465 91.962 301.237 90.1409 301.2 88.3901C301.018 80.4517 304.251 72.6623 309.232 66.4829C314.213 60.3036 320.825 55.6059 327.897 51.9596C330.414 50.66 333.039 49.4762 335.842 49.0624C339.329 48.5574 342.881 49.2983 346.301 50.0847C350.748 51.1028 355.219 52.2203 359.314 54.2236C368.055 58.5404 371.872 66.3878 368.03 75.841Z" fill="#F7D6C8"/>
<path d="M105.298 126.294C132.013 126.294 153.67 104.645 153.67 77.9394C153.67 51.2339 132.013 29.5848 105.298 29.5848C78.5829 29.5848 56.926 51.2339 56.926 77.9394C56.926 104.645 78.5829 126.294 105.298 126.294Z" fill="#C3705A"/>
<path d="M148.673 171.002C148.673 171.002 104.371 182.347 103.273 183.419C102.176 184.491 65.981 186.391 76.5182 164.239C80.3895 156.107 82.0001 145.06 82.4887 134.336C82.5094 133.881 82.5301 133.43 82.5466 132.978C83.2132 115.003 80.8449 98.3235 80.8449 98.3235C80.8449 98.3235 132.186 78.0429 128.405 108.861C127.461 116.526 128.244 124.229 129.958 131.472C130.529 133.889 131.2 136.252 131.945 138.545C137.941 157.021 148.673 171.002 148.673 171.002Z" fill="#ECB4B6"/>
<path opacity="0.1" d="M129.954 131.48C123.145 136.527 114.956 139.375 106.484 139.645C98.0115 139.914 89.6587 137.591 82.5425 132.987C83.2091 115.012 80.8408 98.3318 80.8408 98.3318C80.8408 98.3318 132.181 78.0512 128.401 108.869C127.461 116.539 128.244 124.241 129.954 131.48Z" fill="black"/>
<path d="M105.161 138.851C128.145 138.851 146.776 120.227 146.776 97.2515C146.776 74.2764 128.145 55.6515 105.161 55.6515C82.178 55.6515 63.5464 74.2764 63.5464 97.2515C63.5464 120.227 82.178 138.851 105.161 138.851Z" fill="#ECB4B6"/>
<path opacity="0.1" d="M148.673 171.002C148.673 171.002 104.371 182.347 103.273 183.419C102.176 184.491 65.981 186.391 76.5182 164.239C80.3895 156.107 82.0001 145.06 82.4887 134.336C82.9027 139.94 86.1074 153.511 86.5173 158.027C86.5433 158.291 86.596 158.552 86.6746 158.805C87.2749 160.812 89.4155 163.126 91.995 165.32L92.1482 165.448C95.3567 168.138 99.3382 169.739 103.517 170.018C107.695 170.297 111.854 169.24 115.392 167C119.075 164.681 122.609 162.135 125.975 159.376C130.794 155.399 132.297 150.039 132.484 145.304C132.561 143.031 132.38 140.757 131.945 138.525C137.941 157.021 148.673 171.002 148.673 171.002Z" fill="black"/>
<path d="M204.613 202.342H23.8113C23.8113 202.342 27.5956 183.974 28.1338 180.191C28.4278 178.121 31.8602 170.671 37.4207 164.202C42.0496 158.822 48.1567 154.083 55.1581 153.714C68.2624 153.027 82.4514 134.535 82.4514 134.535C82.7661 139.915 86.0867 153.967 86.5049 158.577C86.5309 158.841 86.5836 159.102 86.6622 159.356C87.2625 161.363 89.4031 163.677 91.9826 165.87L92.1358 165.998C95.3436 168.69 99.3249 170.292 103.504 170.571C107.682 170.851 111.842 169.795 115.38 167.555C119.062 165.235 122.596 162.688 125.963 159.931C130.782 155.953 132.285 150.594 132.471 145.859C132.566 142.717 132.185 139.578 131.341 136.55C131.105 135.689 130.927 135.184 130.902 135.139L131.478 135.383C131.478 135.383 155.96 153.18 178.388 160.456C181.017 161.312 183.497 162.568 185.741 164.181C187.559 165.495 189.233 166.998 190.735 168.664C193.771 172.096 196.282 175.958 198.187 180.124C203.388 191.142 204.613 202.342 204.613 202.342Z" fill="#6C63FF"/>
<path opacity="0.05" d="M204.613 202.342H23.8113C23.8113 202.342 27.5956 183.974 28.1338 180.191C28.4278 178.121 31.8602 170.671 37.4207 164.202C42.0496 158.822 48.1567 154.083 55.1581 153.714C68.2624 153.027 82.4514 134.535 82.4514 134.535C82.7661 139.915 86.0867 153.967 86.5049 158.577C86.5309 158.841 86.5836 159.102 86.6622 159.356C87.2625 161.363 89.4031 163.677 91.9826 165.87L92.1358 165.998C95.3436 168.69 99.3249 170.292 103.504 170.571C107.682 170.851 111.842 169.795 115.38 167.555C119.062 165.235 122.596 162.688 125.963 159.931C130.782 155.953 132.285 150.594 132.471 145.859C132.566 142.717 132.185 139.578 131.341 136.55C131.105 135.689 130.927 135.184 130.902 135.139L131.478 135.383C131.478 135.383 155.96 153.18 178.388 160.456C181.017 161.312 183.497 162.568 185.741 164.181C187.559 165.495 189.233 166.998 190.735 168.664C193.771 172.096 196.282 175.958 198.187 180.124C203.388 191.142 204.613 202.342 204.613 202.342Z" fill="black"/>
<path opacity="0.1" d="M125.168 83.2827C126.244 87.4216 127.652 92.0199 131.349 94.1763C131.845 94.4137 132.301 94.7249 132.703 95.0992C133.614 96.0884 133.337 97.6322 133.2 98.9732C132.728 103.576 134.707 108.24 137.953 111.539C141.199 114.838 145.592 116.853 150.126 117.78C151.236 118.008 152.482 118.153 153.438 117.528C154.085 117.037 154.56 116.355 154.796 115.578C156.059 112.222 155.525 108.451 154.469 105.024C153.413 101.597 151.857 98.3276 151.057 94.8302C149.157 86.5317 151.674 77.956 152.809 69.5168C153.186 66.7106 153.405 63.8175 152.681 61.0817C151.633 57.1166 148.743 53.938 145.952 50.929C144.449 49.3107 142.913 47.6634 140.984 46.6039C135.295 43.4956 127.971 46.2562 121.897 43.9922C119.466 43.0858 117.4 41.4303 115.086 40.2672C110.171 37.7839 104.346 37.6473 98.9591 38.7772C93.5725 39.9071 88.5254 42.2291 83.5279 44.5303L79.7064 46.2603C74.3239 48.7437 68.5563 51.5498 65.6581 56.7441C62.5735 62.2737 63.4306 69.3512 60.346 74.8808C59.4103 76.5363 58.106 78.1257 57.8618 80.0295C57.6961 81.4037 58.1185 82.7778 58.5118 84.1063C59.4724 87.3388 60.3087 90.6623 60.2342 94.0397C60.1597 97.417 59.0832 100.877 56.69 103.253C55.6798 104.254 54.33 105.538 54.9511 106.816C55.1548 107.174 55.4382 107.48 55.7791 107.71C57.7446 109.203 60.055 110.174 62.4963 110.536C64.9376 110.898 67.4307 110.638 69.7446 109.78C71.5581 109.089 73.2722 107.979 74.299 106.345C74.9816 105.147 75.476 103.852 75.7647 102.504C77.0731 97.6322 78.3897 92.678 78.2862 87.6327C78.2283 84.7355 77.6983 81.8134 78.1206 78.941C78.5429 76.0686 80.2198 73.1093 83.0145 72.3188C85.0847 71.7269 87.2998 72.443 89.4611 72.4223C92.5747 72.3974 96.3921 68.9456 99.2779 69.9596C101.762 70.8371 103.729 75.5885 105.782 77.4096C110.991 82.0576 118.262 84.4871 125.168 83.2827Z" fill="black"/>
<path d="M125.168 82.7406C126.244 86.8794 127.652 91.4777 131.349 93.6341C131.838 93.8666 132.288 94.1707 132.687 94.5364C133.598 95.5256 133.32 97.0694 133.184 98.4104C132.712 103.013 134.691 107.677 137.937 110.976C141.183 114.275 145.576 116.29 150.109 117.218C151.219 117.445 152.465 117.59 153.422 116.965C154.068 116.474 154.543 115.792 154.78 115.016C156.043 111.659 155.508 107.888 154.453 104.461C153.397 101.034 151.84 97.7647 151.041 94.2673C149.141 85.9689 151.658 77.3931 152.792 68.9539C153.169 66.1477 153.389 63.2547 152.664 60.5188C151.617 56.5538 148.727 53.3751 145.936 50.3661C144.433 48.7478 142.897 47.1006 140.967 46.041C135.279 42.9327 127.954 45.6933 121.88 43.4294C119.45 42.5229 117.384 40.8674 115.069 39.7044C110.155 37.221 104.329 37.0844 98.9426 38.2144C93.556 39.3443 88.5089 41.6662 83.5115 43.9674L79.7396 45.7058C74.3571 48.1891 68.5895 50.9952 65.6913 56.1896C62.6067 61.7191 63.4638 68.7966 60.3792 74.3262C59.4435 75.9817 58.1392 77.5711 57.895 79.475C57.7293 80.8491 58.1517 82.2232 58.545 83.5518C59.5056 86.7842 60.3419 90.1078 60.2674 93.4851C60.1929 96.8624 59.1164 100.323 56.7232 102.698C55.713 103.7 54.3632 104.983 54.9843 106.262C55.188 106.619 55.4714 106.925 55.8123 107.156C57.7778 108.648 60.0882 109.62 62.5295 109.982C64.9708 110.343 67.4639 110.083 69.7778 109.225C71.5913 108.534 73.3054 107.425 74.3323 105.79C75.0149 104.592 75.5092 103.297 75.7979 101.949C77.1063 97.0777 78.4229 92.1234 78.3194 87.0781C78.2615 84.1809 77.7315 81.2588 78.1538 78.3864C78.5761 75.514 80.253 72.5547 83.0477 71.7642C85.1179 71.1723 87.333 71.8884 89.4943 71.8677C92.6079 71.8428 96.4253 68.391 99.3111 69.405C101.795 70.2825 103.762 75.0339 105.816 76.855C110.991 81.5196 118.262 83.9491 125.168 82.7406Z" fill="#C3705A"/>
<path d="M263.796 100.409H168.94V181.722H263.796V100.409Z" fill="#463A3E"/>
<path opacity="0.05" d="M263.796 100.409H168.94V181.722H263.796V100.409Z" fill="black"/>
<path d="M250.195 217.383H169.043C170.091 211.477 173.155 205.003 179.125 198.025C183.839 192.539 187.695 186.372 190.561 179.731C191.331 177.957 192.021 176.179 192.631 174.396C194.424 169.104 195.644 163.634 196.27 158.081C196.27 157.923 196.308 157.766 196.324 157.609C196.743 153.772 196.911 149.912 196.829 146.053C196.829 145.776 196.829 145.507 196.829 145.225C196.539 135.757 194.973 126.371 192.171 117.321L192.068 116.998C191.186 114.221 190.54 112.661 190.54 112.661C190.54 112.661 192.151 111.787 194.809 110.5L195.032 110.392C204.808 105.699 227.948 95.9064 238.15 102.885L238.316 102.996C241.885 105.538 243.806 110.202 242.903 117.971C242.903 118 242.903 118.033 242.903 118.062C242.903 118.207 242.87 118.347 242.858 118.476C242.311 123.83 242.053 129.21 242.084 134.593C242.084 134.862 242.084 135.131 242.084 135.42C242.084 136.681 242.097 137.959 242.125 139.253C242.125 139.427 242.125 139.601 242.125 139.774C242.208 143.955 242.394 148.272 242.655 152.651C243.015 158.722 243.529 164.906 244.121 170.973C244.373 173.568 244.646 176.147 244.949 178.684C244.982 178.982 245.015 179.288 245.048 179.582C245.396 182.674 245.756 185.704 246.125 188.642L246.149 188.833C247.557 200.504 249.114 210.694 250.195 217.383Z" fill="#C17174"/>
<path opacity="0.1" d="M242.87 117.987C242.87 118.016 242.87 118.049 242.87 118.078C242.287 123.577 242.011 129.104 242.042 134.634C242.042 134.903 242.042 135.172 242.042 135.462C236.593 141.784 229.281 146.218 221.154 148.127C213.028 150.037 204.505 149.324 196.809 146.09C196.809 145.813 196.809 145.544 196.809 145.263C196.517 135.68 194.915 126.183 192.047 117.035C191.165 114.258 190.52 112.698 190.52 112.698C190.52 112.698 192.13 111.825 194.788 110.537C204.468 105.86 228.089 95.7615 238.283 103.013C241.848 105.554 243.769 110.219 242.87 117.987Z" fill="black"/>
<path d="M212.132 148.334C233.929 148.334 251.598 130.67 251.598 108.882C251.598 87.0931 233.929 69.4299 212.132 69.4299C190.336 69.4299 172.666 87.0931 172.666 108.882C172.666 130.67 190.336 148.334 212.132 148.334Z" fill="#C17174"/>
<path opacity="0.1" d="M214.223 217.114H130.029C130.029 217.114 133.813 198.745 134.351 194.962C134.645 192.893 138.077 185.443 143.638 178.974C150.78 173.279 159.626 170.141 168.762 170.063C184.864 169.823 189.551 175.365 190.822 179.462C191.266 180.836 191.379 182.295 191.153 183.721L194.2 188.133L214.223 217.114Z" fill="black"/>
<path d="M213.954 217.383H129.76C129.76 217.383 133.544 199.014 134.082 195.231C134.376 193.162 137.808 185.712 143.369 179.243C150.511 173.548 159.357 170.41 168.493 170.332C184.595 170.092 189.282 175.634 190.553 179.731C190.997 181.105 191.11 182.564 190.884 183.99L193.931 188.402L213.954 217.383Z" fill="#6C63FF"/>
<path opacity="0.1" d="M305.862 217.114H217.647C221.854 208.165 232.88 184.309 233.492 178.792C233.728 176.656 236.006 174.653 239.02 172.952C239.972 172.407 240.952 171.912 241.955 171.47L242.138 171.387C242.69 171.145 243.249 170.92 243.814 170.713C251.445 167.92 259.829 167.987 267.415 170.899C274.656 173.651 283.976 177.36 291.23 180.832L291.288 180.861C293.151 181.755 294.886 182.629 296.414 183.469C299.469 185.145 301.701 186.676 302.558 187.901C302.951 188.464 303.386 191.002 303.862 194.938C304.496 200.26 305.187 208.157 305.862 217.114Z" fill="black"/>
<path d="M306.131 217.383H217.916C222.123 208.435 233.149 184.578 233.761 179.061C233.997 176.925 236.275 174.922 239.289 173.221C240.241 172.676 241.221 172.181 242.224 171.739L242.407 171.656C242.959 171.414 243.518 171.189 244.083 170.982C251.714 168.189 260.098 168.256 267.684 171.168C274.925 173.92 284.245 177.629 291.499 181.101L291.557 181.13C293.42 182.024 295.155 182.898 296.683 183.738C299.738 185.414 301.97 186.945 302.827 188.171C303.22 188.733 303.655 191.271 304.131 195.207C304.769 200.529 305.456 208.43 306.131 217.383Z" fill="#6C63FF"/>
<path opacity="0.1" d="M291.934 174.111C291.934 175.383 291.899 176.656 291.83 177.931C291.792 178.552 291.745 179.173 291.689 179.793C291.652 180.24 291.607 180.683 291.561 181.126L291.503 181.639C290.828 187.657 289.582 193.642 289.433 199.689C289.433 199.975 289.433 200.26 289.433 200.546C289.404 206.224 290.323 211.816 291.569 217.383H240.767C240.684 216.352 240.643 215.313 240.655 214.291C240.655 213.368 240.713 212.445 240.808 211.518C241.591 203.898 245.487 196.767 246.075 189.197L246.1 188.849C246.137 188.282 246.158 187.711 246.149 187.14C246.149 187.09 246.149 187.041 246.149 186.987C246.085 184.484 245.7 182 245.003 179.595C244.969 179.475 244.936 179.355 244.903 179.235C244.193 176.849 243.364 174.501 242.419 172.199L242.237 171.739C240.858 168.296 239.409 164.881 238.428 161.458C237.648 158.909 237.245 156.26 237.231 153.594C237.231 153.118 237.26 152.642 237.297 152.166C237.33 151.777 237.376 151.388 237.434 150.995C237.524 150.381 237.646 149.772 237.798 149.17C238.626 145.908 240.394 142.85 242.088 139.82C243.972 136.447 245.769 133.111 246.091 129.564C246.132 129.115 246.148 128.665 246.137 128.215C246.124 127.635 246.069 127.056 245.971 126.484C245.537 123.968 244.241 121.704 243.177 119.382C243.069 119.146 242.961 118.91 242.858 118.67C242.858 118.633 242.825 118.596 242.812 118.558C240.742 113.778 239.541 108.679 238.279 103.605C238.225 103.385 238.171 103.166 238.113 102.951C237.802 101.709 237.484 100.467 237.144 99.2257C235.289 92.4545 232.648 85.6129 227.621 80.7249C222.595 75.8369 214.579 73.3618 208.286 76.4742C202.841 79.1852 199.893 85.2528 198.564 91.1797C197.235 97.1066 197.127 103.294 195.401 109.122C195.277 109.547 195.139 109.97 194.987 110.392C194.912 110.608 194.838 110.806 194.763 111.042C194.022 113.153 193.107 115.243 192.122 117.321L192.018 117.54C188.871 124.233 185.216 130.81 185.1 137.535V137.622C185.1 137.804 185.1 137.982 185.1 138.164C185.121 139.763 185.364 141.351 185.82 142.883C186.648 145.639 188.147 148.044 189.894 150.333C190.239 150.783 190.593 151.228 190.954 151.67C192.693 153.805 194.581 155.875 196.233 158.077L196.287 158.147C197.543 159.773 198.603 161.542 199.446 163.416C200.445 165.763 200.967 168.286 200.981 170.837C200.995 173.388 200.501 175.916 199.529 178.274C199.06 179.364 198.522 180.423 197.918 181.445C196.854 183.282 195.682 185.07 194.759 186.983C194.449 187.624 194.171 188.278 193.931 188.94C191.861 194.271 191.414 200.169 189.724 205.67C188.416 209.893 186.38 213.855 183.708 217.379H129.884C130.509 214.32 133.61 199.167 134.098 195.765C134.392 193.696 137.825 186.246 143.385 179.777C142.917 180.145 142.466 180.518 142.031 180.89C138.525 183.877 135.486 187.374 133.018 191.262C133.138 190.89 133.262 190.513 133.386 190.141C134.144 187.881 134.964 185.642 135.796 183.431C138.206 177.066 140.889 170.572 145.692 165.746C148.403 163.023 151.703 160.924 154.287 158.081C158.841 153.077 160.725 146.144 160.671 139.348C160.671 138.645 160.642 137.945 160.597 137.246C160.104 129.796 157.558 122.664 154.8 115.723C153.318 111.998 151.745 108.083 151.815 104.134C151.82 103.581 151.86 103.028 151.935 102.479C153.074 94.2963 161.355 89.3959 166.327 82.7943C173.722 72.9727 174.26 58.3749 183.961 50.8338C191.414 45.0394 201.765 45.3953 211.176 46.0244C219.928 46.6122 227.828 47.7504 236.515 48.9672C245.201 50.184 254.016 52.4687 260.984 57.8203C265.485 61.2721 268.996 65.8456 272.114 70.5846C276.287 76.9337 279.935 83.9449 280.436 91.5232C280.473 92.0654 280.494 92.6035 280.494 93.1374C280.581 101.995 276.734 110.579 276.225 119.473C276.204 119.887 276.188 120.301 276.184 120.715C276.181 120.737 276.181 120.759 276.184 120.781C276.093 128.492 279.053 136.587 283.082 143.131C288.805 152.457 291.867 163.17 291.934 174.111Z" fill="black"/>
<path d="M291.934 174.111C291.934 175.203 291.893 176.3 291.83 177.389C291.792 178.01 291.745 178.63 291.69 179.251C291.634 179.872 291.572 180.487 291.503 181.097C290.828 187.115 289.582 193.1 289.433 199.147C289.433 199.61 289.433 200.078 289.433 200.542C289.462 206.216 290.423 211.812 291.69 217.379H240.813C240.717 216.348 240.66 215.309 240.651 214.287C240.64 213.181 240.692 212.076 240.804 210.976C241.587 203.356 245.483 196.225 246.071 188.655C246.112 188.1 246.141 187.546 246.146 186.999C246.146 186.871 246.146 186.738 246.146 186.61C246.093 183.931 245.676 181.272 244.908 178.705C244.198 176.319 243.368 173.971 242.423 171.669C240.991 168.072 239.455 164.5 238.428 160.908C237.704 158.526 237.302 156.058 237.231 153.569C237.22 152.912 237.242 152.254 237.298 151.599C237.331 151.21 237.376 150.821 237.434 150.428C237.525 149.814 237.646 149.205 237.799 148.603C238.627 145.341 240.395 142.283 242.088 139.253C243.976 135.876 245.781 132.531 246.1 128.98C246.125 128.711 246.137 128.438 246.146 128.152C246.165 127.391 246.11 126.63 245.98 125.88C245.545 123.364 244.249 121.1 243.185 118.778C243.078 118.542 242.97 118.306 242.866 118.066C240.767 113.257 239.554 108.133 238.287 103C237.923 101.535 237.55 100.07 237.157 98.6174C235.302 91.8461 232.66 85.0046 227.634 80.1165C222.607 75.2285 214.604 72.8031 208.315 75.9321C202.87 78.6431 199.922 84.7107 198.593 90.6376C197.264 96.5645 197.157 102.752 195.43 108.58C195.24 109.221 195.016 109.863 194.805 110.5C194.035 112.681 193.074 114.846 192.064 116.998C188.83 123.865 185.067 130.619 185.145 137.535V137.622C185.167 139.221 185.409 140.809 185.866 142.341C186.694 145.097 188.193 147.502 189.94 149.791C190.285 150.24 190.638 150.686 191 151.127C192.759 153.288 194.668 155.378 196.333 157.605C197.589 159.231 198.649 161 199.492 162.874C200.491 165.221 201.012 167.744 201.026 170.295C201.041 172.846 200.547 175.374 199.575 177.732C199.106 178.822 198.568 179.881 197.964 180.903C196.9 182.74 195.728 184.528 194.805 186.44C194.494 187.082 194.217 187.736 193.977 188.398C191.907 193.729 191.459 199.627 189.77 205.128C188.393 209.568 186.213 213.719 183.34 217.375H129.76C129.76 217.375 133.544 199.006 134.082 195.223C134.351 193.332 137.254 186.945 142.015 180.89C142.429 180.336 142.901 179.781 143.369 179.235C139.475 182.311 136.101 185.992 133.374 190.136L133.006 190.716C133.867 188.071 134.815 185.46 135.788 182.885C138.198 176.52 140.881 170.026 145.683 165.2C148.395 162.476 151.695 160.378 154.279 157.534C158.701 152.663 160.614 145.946 160.663 139.323C160.663 138.438 160.663 137.556 160.589 136.679C160.096 129.229 157.55 122.097 154.792 115.156C153.38 111.589 151.894 107.872 151.807 104.089C151.788 103.36 151.828 102.63 151.927 101.908C153.07 93.7707 161.351 88.891 166.323 82.2688C173.718 72.4472 174.256 57.8493 183.957 50.3082C191.41 44.5138 201.761 44.8697 211.172 45.4989C219.925 46.0866 227.824 47.2248 236.511 48.4416C245.197 49.6584 254.025 51.939 260.985 57.274C265.485 60.7465 268.996 65.2993 272.114 70.0425C276.287 76.3915 279.935 83.4028 280.436 90.9811C280.486 91.7013 280.505 92.4201 280.494 93.1375C280.424 101.8 276.722 110.219 276.225 118.935C276.192 119.523 276.176 120.106 276.184 120.698C276.181 120.72 276.181 120.743 276.184 120.765C276.234 128.314 279.148 136.186 283.082 142.564C288.906 152.054 291.971 162.977 291.934 174.111Z" fill="#463A3E"/>
</g>
<defs>
<clipPath id="clip0">
<rect width="460" height="244" fill="white"/>
</clipPath>
</defs>
</svg>
